<?xml version="1.0" encoding="UTF-8" standalone="no"?>
<!-- Generator: Adobe Illustrator 16.0.0, SVG Export Plug-In . SVG Version: 6.00 Build 0)  -->

<svg
   xmlns:dc="http://purl.org/dc/elements/1.1/"
   xmlns:cc="http://creativecommons.org/ns#"
   xmlns:rdf="http://www.w3.org/1999/02/22-rdf-syntax-ns#"
   xmlns:svg="http://www.w3.org/2000/svg"
   xmlns="http://www.w3.org/2000/svg"
   xmlns:sodipodi="http://sodipodi.sourceforge.net/DTD/sodipodi-0.dtd"
   xmlns:inkscape="http://www.inkscape.org/namespaces/inkscape"
   version="1.1"
   id="Capa_1"
   x="0px"
   y="0px"
   width="55.125px"
   height="55.125px"
   viewBox="0 0 55.125 55.125"
   style="enable-background:new 0 0 55.125 55.125;"
   xml:space="preserve"
   inkscape:version="0.91 r13725"
   sodipodi:docname="film.svg"><metadata
     id="metadata43"><rdf:RDF><cc:Work
         rdf:about=""><dc:format>image/svg+xml</dc:format><dc:type
           rdf:resource="http://purl.org/dc/dcmitype/StillImage" /></cc:Work></rdf:RDF></metadata><defs
     id="defs41" /><sodipodi:namedview
     pagecolor="#ffffff"
     bordercolor="#666666"
     borderopacity="1"
     objecttolerance="10"
     gridtolerance="10"
     guidetolerance="10"
     inkscape:pageopacity="0"
     inkscape:pageshadow="2"
     inkscape:window-width="1920"
     inkscape:window-height="1018"
     id="namedview39"
     showgrid="false"
     inkscape:zoom="4.2811791"
     inkscape:cx="27.5625"
     inkscape:cy="27.5625"
     inkscape:window-x="-8"
     inkscape:window-y="-8"
     inkscape:window-maximized="1"
     inkscape:current-layer="Capa_1" /><g
     id="g3"
     style="fill:#000000"><g
       id="g5"
       style="fill:#000000"><path
         d="M4.167,47.007h46.792c2.302,0,4.167-1.866,4.167-4.167V12.285c0-2.301-1.865-4.167-4.167-4.167H4.167    C1.866,8.118,0,9.984,0,12.285V42.84C0,45.141,1.866,47.007,4.167,47.007z M30.771,44.082h-6.418v-3.965h6.418V44.082z     M46.065,11.138h6.418v3.965h-6.418V11.138z M45.875,40.117h6.419v3.965h-6.419V40.117z M35.303,11.138h6.419v3.965h-6.419V11.138    z M35.114,40.117h6.419v3.965h-6.419V40.117z M24.543,11.138h6.418v3.965h-6.418V11.138z M22.743,20.717l9.639,4.82    c2.237,1.119,2.237,2.933,0,4.051l-9.639,4.821c-2.237,1.118-4.052-0.003-4.052-2.506v-8.681    C18.69,20.72,20.505,19.599,22.743,20.717z M13.782,11.138h6.419v3.965h-6.419V11.138z M13.593,40.117h6.418v3.965h-6.418V40.117z     M3.021,11.138h6.419v3.965H3.021V11.138z M2.832,40.117h6.419v3.965H2.832V40.117z"
         id="path7"
         style="fill:#000000" /></g></g><g
     id="g9" /><g
     id="g11" /><g
     id="g13" /><g
     id="g15" /><g
     id="g17" /><g
     id="g19" /><g
     id="g21" /><g
     id="g23" /><g
     id="g25" /><g
     id="g27" /><g
     id="g29" /><g
     id="g31" /><g
     id="g33" /><g
     id="g35" /><g
     id="g37" /><path
     style="opacity:1;fill:#ffffff;fill-opacity:1;fill-rule:nonzero;stroke:none;stroke-width:0.23358051;stroke-linecap:butt;stroke-linejoin:round;stroke-miterlimit:5.19999981;stroke-dasharray:none;stroke-dashoffset:0;stroke-opacity:1"
     d="m 19.47802,33.897968 -0.604715,-0.718663 0,-5.48282 c 0,-4.288522 0.0725,-5.623027 0.332853,-6.126487 0.347946,-0.672853 1.23511,-1.201778 2.015739,-1.201778 0.584766,0 11.934532,5.668815 12.348545,6.167671 0.475312,0.572716 0.370628,1.499959 -0.244343,2.164281 -0.305114,0.3296 -2.953848,1.795639 -5.886075,3.257866 -6.115013,3.049401 -6.873038,3.234093 -7.962004,1.93993 z"
     id="path4171"
     inkscape:connector-curvature="0" /><path
     style="opacity:1;fill:#ffffff;fill-opacity:1;fill-rule:nonzero;stroke:none;stroke-width:0.23358051;stroke-linecap:butt;stroke-linejoin:round;stroke-miterlimit:5.19999981;stroke-dasharray:none;stroke-dashoffset:0;stroke-opacity:1"
     d="m 3.223411,13.127225 0,-1.868644 3.0365466,0 3.0365466,0 0,1.868644 0,1.868644 -3.0365466,0 -3.0365466,0 0,-1.868644 z"
     id="path4173"
     inkscape:connector-curvature="0" /><path
     style="opacity:1;fill:#ffffff;fill-opacity:1;fill-rule:nonzero;stroke:none;stroke-width:0.23358051;stroke-linecap:butt;stroke-linejoin:round;stroke-miterlimit:5.19999981;stroke-dasharray:none;stroke-dashoffset:0;stroke-opacity:1"
     d="m 13.968114,13.127225 0,-1.868644 3.036547,0 3.036547,0 0,1.868644 0,1.868644 -3.036547,0 -3.036547,0 0,-1.868644 z"
     id="path4175"
     inkscape:connector-curvature="0" /><path
     style="opacity:1;fill:#ffffff;fill-opacity:1;fill-rule:nonzero;stroke:none;stroke-width:0.23358051;stroke-linecap:butt;stroke-linejoin:round;stroke-miterlimit:5.19999981;stroke-dasharray:none;stroke-dashoffset:0;stroke-opacity:1"
     d="m 24.712818,13.127225 0,-1.868644 3.036546,0 3.036547,0 0,1.868644 0,1.868644 -3.036547,0 -3.036546,0 0,-1.868644 z"
     id="path4177"
     inkscape:connector-curvature="0" /><path
     style="opacity:1;fill:#ffffff;fill-opacity:1;fill-rule:nonzero;stroke:none;stroke-width:0.23358051;stroke-linecap:butt;stroke-linejoin:round;stroke-miterlimit:5.19999981;stroke-dasharray:none;stroke-dashoffset:0;stroke-opacity:1"
     d="m 35.457521,13.127225 0,-1.868644 3.036547,0 3.036546,0 0,1.868644 0,1.868644 -3.036546,0 -3.036547,0 0,-1.868644 z"
     id="path4179"
     inkscape:connector-curvature="0" /><path
     style="opacity:1;fill:#ffffff;fill-opacity:1;fill-rule:nonzero;stroke:none;stroke-width:0.23358051;stroke-linecap:butt;stroke-linejoin:round;stroke-miterlimit:5.19999981;stroke-dasharray:none;stroke-dashoffset:0;stroke-opacity:1"
     d="m 46.202225,13.127225 0,-1.868644 3.036546,0 3.036547,0 0,1.868644 0,1.868644 -3.036547,0 -3.036546,0 0,-1.868644 z"
     id="path4181"
     inkscape:connector-curvature="0" /><path
     style="opacity:1;fill:#ffffff;fill-opacity:1;fill-rule:nonzero;stroke:none;stroke-width:0.23358051;stroke-linecap:butt;stroke-linejoin:round;stroke-miterlimit:5.19999981;stroke-dasharray:none;stroke-dashoffset:0;stroke-opacity:1"
     d="m 45.968644,42.091208 0,-1.868644 3.153337,0 3.153337,0 0,1.868644 0,1.868644 -3.153337,0 -3.153337,0 0,-1.868644 z"
     id="path4183"
     inkscape:connector-curvature="0" /><path
     style="opacity:1;fill:#ffffff;fill-opacity:1;fill-rule:nonzero;stroke:none;stroke-width:0.23358051;stroke-linecap:butt;stroke-linejoin:round;stroke-miterlimit:5.19999981;stroke-dasharray:none;stroke-dashoffset:0;stroke-opacity:1"
     d="m 35.223941,42.091208 0,-1.868644 3.153337,0 3.153336,0 0,1.868644 0,1.868644 -3.153336,0 -3.153337,0 0,-1.868644 z"
     id="path4185"
     inkscape:connector-curvature="0" /><path
     style="opacity:1;fill:#ffffff;fill-opacity:1;fill-rule:nonzero;stroke:none;stroke-width:0.23358051;stroke-linecap:butt;stroke-linejoin:round;stroke-miterlimit:5.19999981;stroke-dasharray:none;stroke-dashoffset:0;stroke-opacity:1"
     d="m 24.479237,42.091208 0,-1.868644 3.036547,0 3.036547,0 0,1.868644 0,1.868644 -3.036547,0 -3.036547,0 0,-1.868644 z"
     id="path4187"
     inkscape:connector-curvature="0" /><path
     style="opacity:1;fill:#ffffff;fill-opacity:1;fill-rule:nonzero;stroke:none;stroke-width:0.23358051;stroke-linecap:butt;stroke-linejoin:round;stroke-miterlimit:5.19999981;stroke-dasharray:none;stroke-dashoffset:0;stroke-opacity:1"
     d="m 13.734534,42.091208 0,-1.868644 3.036547,0 3.036546,0 0,1.868644 0,1.868644 -3.036546,0 -3.036547,0 0,-1.868644 z"
     id="path4189"
     inkscape:connector-curvature="0" /><path
     style="opacity:1;fill:#ffffff;fill-opacity:1;fill-rule:nonzero;stroke:none;stroke-width:0.23358051;stroke-linecap:butt;stroke-linejoin:round;stroke-miterlimit:5.19999981;stroke-dasharray:none;stroke-dashoffset:0;stroke-opacity:1"
     d="m 2.9898305,42.091208 0,-1.868644 3.0365466,0 3.0365466,0 0,1.868644 0,1.868644 -3.0365466,0 -3.0365466,0 0,-1.868644 z"
     id="path4191"
     inkscape:connector-curvature="0" /></svg>